<?xml version="1.0" encoding="utf-8"?>
<svg viewBox="0 36.106 161.884 463.894" xmlns="http://www.w3.org/2000/svg">
  <g transform="matrix(0.641987, 0, 0, 0.641987, -240.079437, -0.554362)" style="">
    <g>
      <rect x="484.4" y="699.9" class="st0" width="29.3" height="63.4" style="fill: rgb(26, 130, 17);"/>
      <path class="st0" d="M410.1,337.4c2.6,1.1,6.2,2.5,10.4,4.3C416.3,339.9,412.7,338.5,410.1,337.4z" style="fill: rgb(26, 130, 17);"/>
      <path class="st0" d="M410.1,337.4c-0.5-0.2-0.9-0.4-1.3-0.5l0,0C409.2,337,409.6,337.2,410.1,337.4z" style="fill: rgb(26, 130, 17);"/>
      <path class="st0" d="M429.3,345.7c-1.5-0.7-3-1.4-4.4-2C426.3,344.3,427.8,345,429.3,345.7L429.3,345.7z" style="fill: rgb(26, 130, 17);"/>
      <path class="st1" d="M442.1,352.1c1.7,0.9,3.5,1.8,5.2,2.8C445.6,353.9,443.8,353,442.1,352.1z" style="fill: rgb(244, 196, 42);"/>
      <path class="st0" d="M585.4,385.4c-0.8,1.9-1.7,3.7-2.6,5.5C583.8,389.1,584.6,387.2,585.4,385.4z" style="fill: rgb(26, 130, 17);"/>
      <path class="st0" d="M590.2,371.4c-0.5,1.8-1,3.7-1.7,5.5C589.2,375.1,589.7,373.3,590.2,371.4z" style="fill: rgb(26, 130, 17);"/>
      <path class="st0" d="M580.5,395.1c0.8-1.4,1.6-2.8,2.3-4.2C582.1,392.3,581.3,393.7,580.5,395.1L580.5,395.1z" style="fill: rgb(26, 130, 17);"/>
      <path class="st0" d="M455.6,607.2c-4.5-2.2-8.8-4.3-12.7-6.2c-2.6-1.3-5.1-2.5-7.4-3.7c-2.3-1.2-4.5-2.3-6.6-3.3 c-5.2-2.6-9.5-4.9-13.2-6.8c-1.5-0.8-2.9-1.5-4.1-2.2c-11.4-6.1-14.6-8.3-14.6-8.3s-0.9,3-1.8,8c-0.3,1.9-0.7,4-1,6.4 c-0.8,7.1-1.2,16.2,0.3,25.9c0.5,3.2,1.2,6.5,2.2,9.8c0.3,1.1,0.7,2.2,1,3.3c0.8,2.2,1.6,4.4,2.6,6.5c3,6.5,7.3,12.8,13.2,18.5 c2,1.9,4,3.7,6,5.4c30.7,25.1,68.6,26.1,68.6,26.1C488.1,686.6,504.1,630.6,455.6,607.2z" style="fill: rgb(26, 130, 17);"/>
      <path class="st0" d="M398.2,513.5c0.1,5.9,0.6,12.6,1.8,19.5c0.6,3.4,1.4,6.9,2.5,10.4c0.7,2.3,1.5,4.6,2.4,6.9 c0.9,2.3,1.9,4.5,3.1,6.8c1.1,2.2,2.4,4.4,3.8,6.5c1.4,2.1,3,4.1,4.7,6s3.6,3.8,5.6,5.5c8.1,6.9,16.7,12.3,24.9,16.4 c2.1,1,4.1,2,6.1,2.8c4,1.8,7.9,3.2,11.6,4.4c16.6,5.5,28.9,6.2,28.9,6.2s0.3-2.7,0.4-7.2c0-0.6,0-1.3,0-2c0-5-0.4-11.6-1.6-19 c-0.2-1.1-0.4-2.1-0.6-3.2c-0.4-2.2-0.9-4.4-1.5-6.6c-0.3-1.1-0.6-2.3-1-3.4c-1.7-5.7-4.1-11.5-7.3-17.1 c-5.1-9-12.3-17.4-22.4-24c-9.5-6.2-18-11.2-25.4-15.3c-0.9-0.5-1.8-1-2.7-1.5c-2.7-1.4-5.2-2.7-7.5-3.9 c-0.8-0.4-1.5-0.8-2.3-1.1c-1.5-0.7-2.9-1.4-4.3-2c-3.4-1.6-6.3-2.8-8.7-3.8c-5.8-2.4-8.9-3.3-8.9-3.3 C399.7,491.4,398,500.6,398.2,513.5z" style="fill: rgb(26, 130, 17);"/>
      <path class="st0" d="M509.3,509.8c0,0,2-0.2,5.5-0.7c1-0.1,2.1-0.3,3.3-0.5c0.6-0.1,1.2-0.2,1.9-0.3c1.3-0.2,2.7-0.5,4.2-0.8 c0.7-0.2,1.5-0.3,2.3-0.5c0.9-0.2,1.9-0.4,2.9-0.7c2-0.5,4.2-1.1,6.4-1.7c1.1-0.3,2.3-0.7,3.4-1c1.8-0.6,3.6-1.2,5.5-1.9 c4.7-1.7,9.4-3.7,14.1-6.2s9.2-5.3,13.4-8.6c1.7-1.3,3.3-2.7,4.9-4.2c25-23.5,20.4-75.8,20.4-75.8s-18.9,15.7-55.5,36 C505.2,463.3,509.3,509.8,509.3,509.8z" style="fill: rgb(26, 130, 17);"/>
      <path class="st0" d="M600.3,491.4c0,0-7.7,2.2-21.8,9.1c-0.7,0.4-1.5,0.7-2.3,1.1c-2.3,1.2-4.9,2.5-7.5,3.9 c-0.9,0.5-1.8,1-2.7,1.5c-7.4,4.1-15.9,9.1-25.4,15.3c-3.8,2.5-7.2,5.2-10.2,8.1c-2.8,2.7-5.2,5.6-7.4,8.5 c-0.4,0.6-0.9,1.2-1.3,1.8c-0.8,1.1-1.5,2.3-2.3,3.5c-2.2,3.6-4,7.2-5.5,10.9c-0.4,0.9-0.7,1.8-1.1,2.7c-9,23.7-6.3,47-6.3,47 s7.3-0.4,18.1-3.1c0.3-0.1,0.6-0.2,1-0.2c1.3-0.3,2.6-0.7,3.9-1.1c0.4-0.1,0.8-0.2,1.2-0.3c1.5-0.5,3.1-0.9,4.7-1.5 c1.8-0.6,3.7-1.3,5.7-2c1.9-0.7,3.9-1.5,5.9-2.4c2-0.9,4-1.8,6.1-2.8c3.1-1.5,6.2-3.2,9.3-5.1c2.1-1.3,4.2-2.6,6.3-4.1 c3.1-2.2,6.2-4.5,9.3-7.1c5.1-4.3,9.1-9.3,12.3-14.7c1.3-2.2,2.4-4.4,3.4-6.6c1-2.3,1.9-4.5,2.7-6.9c0.8-2.3,1.5-4.6,2.1-7 c0.3-1.2,0.6-2.3,0.8-3.5c0.7-3.5,1.3-6.9,1.7-10.3c0.3-2.2,0.4-4.4,0.6-6.5c0.1-2.1,0.2-4.2,0.2-6.2 C602,500.6,600.3,491.4,600.3,491.4z" style="fill: rgb(26, 130, 17);"/>
      <path class="st0" d="M403.9,438.9c0.1,1,0.3,2,0.5,3.1c0.4,2.1,0.8,4.2,1.2,6.3c0.2,1.1,0.5,2.1,0.8,3.2 c0.5,2.1,1.2,4.2,1.8,6.3c0.7,2.1,1.5,4.1,2.3,6.1c3,7,7,13.6,12.5,18.7c1.6,1.5,3.2,2.9,4.9,4.2c25.3,19.8,62.8,23,62.8,23 c0,0,0.7-7.7-1-18.2c-0.5-3.2-1.2-6.7-2.3-10.3c-0.3-0.9-0.5-1.8-0.8-2.7c-0.6-1.8-1.3-3.7-2-5.5c-4.6-11.2-12.6-22.5-26.4-30.1 c-9.2-5.1-17.2-9.9-24.2-14.2c-1.7-1.1-3.4-2.1-5-3.2c-4.8-3.1-8.9-5.9-12.4-8.3c-9.3-6.5-14-10.4-14-10.4c0,0-0.6,7.3-0.1,17.8 c0,0.9,0.1,1.8,0.2,2.7c0.1,1.8,0.3,3.7,0.5,5.7C403.3,434.9,403.6,436.9,403.9,438.9z" style="fill: rgb(26, 130, 17);"/>
      <path class="st0" d="M605.8,591.2c-1-8.7-2.8-14.3-2.8-14.3c0,0-10.1,6.9-58.6,30.4c-48.5,23.5-32.5,79.4-32.5,79.4 c0,0,15.2-0.4,34.2-7c2-0.7,4-1.5,6.1-2.3c2.1-0.8,4.2-1.8,6.3-2.8c2.1-1,4.2-2.1,6.3-3.3c2.1-1.2,4.2-2.5,6.4-3.8 c3.2-2.1,6.3-4.3,9.4-6.8c2-1.7,4.1-3.5,6-5.4c5.9-5.7,10.2-12,13.2-18.5c1-2.2,1.9-4.4,2.6-6.5c0.8-2.2,1.4-4.4,1.9-6.6 c0.5-2.2,1-4.4,1.3-6.5c0.7-4.3,1-8.5,1-12.4c0-3-0.1-5.8-0.3-8.4C606.2,594.4,606,592.7,605.8,591.2z" style="fill: rgb(26, 130, 17);"/>
      <path class="st0" d="M547.5,357.8c9.4-5.6,19.3-10.4,27.6-14.1c3.8-1.7,7.2-3.2,10.1-4.4c1.2-0.5,2.2-0.9,3.2-1.3 c3.9-1.6,6.3-2.5,6.3-2.5s0.3,8.5-1.4,20.4c-0.3,2.4-0.8,4.9-1.3,7.5c-0.5,2.6-1.2,5.3-1.9,8c-0.5,1.8-1,3.7-1.7,5.5 c-0.9,2.8-2,5.6-3.2,8.4c-0.8,1.9-1.7,3.7-2.6,5.5c-0.7,1.4-1.5,2.8-2.3,4.2c-1.3,2.2-2.7,4.4-4.3,6.5 c-20.1,27.2-66.9,28.8-66.9,28.8c0,0-1.3-16.6,4.4-34.1c3.4-10.5,9.2-21.2,19.3-28.8C537.4,364.1,542.4,360.8,547.5,357.8z M405.2,335.5c0,0-0.1,2.4,0.1,6.5c0,0.5,0,1,0.1,1.6c0.3,5.6,1.1,13.6,3.1,22.4c0.4,1.8,0.8,3.6,1.3,5.4 c1,3.7,2.2,7.4,3.7,11.1c0.4,0.9,0.8,1.9,1.2,2.8c2.4,5.6,5.4,11.1,9.2,16.2c20.1,27.2,66.9,28.8,66.9,28.8c0,0,0.1-1,0.1-2.9 c0-1.1,0-2.5,0-4.1c-0.1-3.8-0.4-8.8-1.4-14.4c-0.7-4-1.6-8.3-3-12.7c-3.4-10.5-9.2-21.2-19.3-28.8c-6-4.5-12.8-8.8-19.8-12.6 c-1.7-1-3.5-1.9-5.2-2.8c-1.7-0.9-3.4-1.8-5.1-2.6s-3.4-1.7-5-2.5c-0.9-0.4-1.8-0.9-2.7-1.3c-1.5-0.7-3-1.4-4.4-2 c-1.5-0.7-3-1.3-4.4-1.9c-4.2-1.8-7.8-3.3-10.4-4.3c-0.5-0.2-0.9-0.4-1.3-0.5C406.5,336,405.2,335.5,405.2,335.5z M457.8,327.4 c0,5.6,2.7,11.2,6.7,16.5c0.4,0.5,0.8,1.1,1.2,1.6c1.7,2.1,3.6,4.1,5.6,6.1c1,1,2,1.9,3.1,2.9c1.6,1.4,3.2,2.7,4.8,4 c3.7,3,7.4,5.6,10.7,7.7c0.9,0.6,1.8,1.2,2.6,1.7c1.3,0.8,2.4,1.5,3.4,2.1c0.6,0.4,1.3,0.7,2,0.8c0.7,0.2,1.4,0.3,2.1,0.3 c0.8,0,1.6-0.1,2.3-0.4c0.6-0.2,1.2-0.4,1.7-0.8c10.6-6.4,38.1-24.7,38.1-42.5c0-22.1-42.1-58.6-42.1-58.6s-1.5,1.3-3.9,3.5 c-1.6,1.5-3.6,3.4-5.9,5.6c-0.6,0.6-1.1,1.1-1.7,1.7c-1.8,1.8-3.7,3.7-5.6,5.8c-0.6,0.7-1.3,1.4-2,2.1c-2.6,2.9-5.3,6-7.8,9.1 c-0.6,0.8-1.3,1.6-1.9,2.4C463.7,308.9,457.8,319.2,457.8,327.4z" style="fill: rgb(26, 130, 17);"/>
      <g>
        <path class="st2" d="M489.4,408.9c-0.7-4-1.6-8.3-3-12.7c-3.4-10.5-9.2-21.2-19.3-28.8c-6-4.5-12.8-8.8-19.8-12.6 c-1.7-1-3.5-1.9-5.2-2.8c-1.7-0.9-3.4-1.8-5.1-2.6c-1.7-0.8-3.4-1.7-5-2.5c-0.9-0.4-1.8-0.9-2.7-1.3c-1.5-0.7-3-1.4-4.4-2 c-1.5-0.7-3-1.3-4.4-1.9c-4.2-1.8-7.8-3.3-10.4-4.3c-0.5-0.2-0.9-0.4-1.3-0.5c-2.3-0.9-3.6-1.4-3.6-1.4c0,0-0.1,2.4,0.1,6.5 c0,0.5,0,1,0.1,1.6c0.3,5.6,1.1,13.6,3.1,22.4c0.4,1.8,0.8,3.6,1.3,5.4c1,3.7,2.2,7.4,3.7,11.1c0.4,0.9,0.7,1.9,1.2,2.8 c2.4,5.6,5.4,11.1,9.2,16.2c20.1,27.2,66.9,28.8,66.9,28.8c0,0,0.1-1,0.1-2.9c0-1.1,0-2.5,0-4.1 C490.6,419.6,490.3,414.6,489.4,408.9z" style="fill: none;"/>
        <path class="st2" d="M542,327.4c0-22.1-42.1-58.6-42.1-58.6s-1.5,1.3-3.9,3.5c-1.6,1.5-3.6,3.4-5.9,5.6 c-0.6,0.6-1.1,1.1-1.7,1.7c-1.8,1.8-3.7,3.7-5.6,5.8c-0.6,0.7-1.3,1.4-2,2.1c-2.6,2.9-5.3,6-7.8,9.1c-0.6,0.8-1.3,1.6-1.9,2.4 c-7.4,9.6-13.3,20-13.3,28.2c0,5.6,2.7,11.2,6.7,16.5c0.4,0.5,0.8,1.1,1.2,1.6c1.7,2.1,3.6,4.1,5.6,6.1c1,1,2,1.9,3.1,2.9 c1.6,1.4,3.2,2.7,4.8,4c3.7,3,7.4,5.6,10.7,7.7c0.9,0.6,1.8,1.2,2.6,1.7c1.3,0.8,2.4,1.5,3.4,2.1c0.6,0.4,1.3,0.7,2,0.8 c0.7,0.2,1.4,0.3,2.1,0.3c0.8,0,1.6-0.1,2.3-0.4c0.6-0.2,1.2-0.4,1.7-0.8C514.5,363.6,542,345.3,542,327.4z" style="fill: none;"/>
        <path class="st2" d="M588.5,338c-1,0.4-2.1,0.8-3.2,1.3c-2.9,1.2-6.4,2.7-10.1,4.4c-8.3,3.7-18.2,8.6-27.6,14.1 c-5.1,3-10.1,6.3-14.6,9.7c-10.1,7.6-15.9,18.3-19.3,28.8c-5.6,17.4-4.4,34.1-4.4,34.1c0,0,46.8-1.6,66.9-28.8 c1.5-2.1,3-4.3,4.3-6.5c0.8-1.4,1.6-2.8,2.3-4.2c0.9-1.8,1.8-3.7,2.6-5.5c1.2-2.8,2.2-5.6,3.2-8.4c0.6-1.9,1.2-3.7,1.7-5.5 c0.7-2.7,1.4-5.4,1.9-8c0.5-2.6,0.9-5.1,1.3-7.5c1.7-11.9,1.4-20.4,1.4-20.4S592.4,336.4,588.5,338z" style="fill: none;"/>
        <path class="st0" d="M415.8,319.2l1.4,0.5c3.6,1.4,7.3,3,11,4.6c0.4,0.2,0.8,0.4,1.2,0.5V139.3c0-5.7-4.6-10.2-10.2-10.2h0 c-5.7,0-10.2,4.6-10.2,10.2v177.3l2.4,0.8C412.1,317.8,414.8,318.8,415.8,319.2z" style="fill: rgb(26, 130, 17);"/>
        <path class="st1" d="M438.8,327.4c0-11.7,5.6-24.7,17.3-39.8c0.7-0.9,1.4-1.8,2.1-2.7c0,0,0-0.1,0.1-0.1V109.5 c0-5.7-4.6-10.2-10.2-10.2h0c-5.7,0-10.2,4.6-10.2,10.2v219.2c0.3,0.2,0.7,0.3,1,0.5C438.8,328.6,438.8,328,438.8,327.4z" style="fill: rgb(244, 196, 42);"/>
        <path class="st0" d="M468.9,272.6c1.9-2.1,4-4.2,6-6.3c0.6-0.6,1.3-1.3,1.9-1.9c2.1-2.1,4.2-4.1,6.3-6c2-1.9,3.4-3.1,4-3.7 V83.7c0-5.7-4.6-10.2-10.2-10.2h0c-5.7,0-10.2,4.6-10.2,10.2V275c0,0,0.1-0.1,0.1-0.1C467.5,274.1,468.2,273.3,468.9,272.6z" style="fill: rgb(26, 130, 17);"/>
        <path class="st0" d="M533.3,275.2V83.7c0-5.7-4.6-10.2-10.2-10.2l0,0c-5.7,0-10.2,4.6-10.2,10.2v171.3 C515,256.8,523.9,264.8,533.3,275.2z" style="fill: rgb(26, 130, 17);"/>
        <path class="st1" d="M561,329.3c0.4-0.2,0.8-0.4,1.2-0.6V109.5c0-5.7-4.6-10.2-10.2-10.2h0c-5.7,0-10.2,4.6-10.2,10.2v175.6 c12.9,16.2,19.3,30.1,19.3,42.4C561.1,328,561,328.7,561,329.3z" style="fill: rgb(244, 196, 42);"/>
        <path class="st0" d="M581.4,320.3c4.2-1.7,6.8-2.6,6.9-2.7l2.9-1.1V139.3c0-5.7-4.6-10.2-10.2-10.2l0,0 c-5.7,0-10.2,4.6-10.2,10.2v185.5c2.4-1.1,4.8-2.1,7.3-3.1C579.2,321.2,580.3,320.7,581.4,320.3z" style="fill: rgb(26, 130, 17);"/>
      </g>
    </g>
  </g>
</svg>