<?xml version="1.0" encoding="utf-8"?>
<svg version="1.1" id="Layer_1" x="0px" y="0px" viewBox="0 0 1000 1000" style="enable-background:new 0 0 1000 1000;" xmlns="http://www.w3.org/2000/svg">
  <style type="text/css">
	.st0{fill:#1A8211;}
	.st1{fill:#F4C42A;}
	.st2{fill:none;}
</style>
  <g>
    <g>
      <g>
        <path d="M498.7,926.5c-93.4,0-176.1-23.9-245.8-70.9C197.1,818,149.6,765.7,111.7,700C47.4,588.7,33,479.2,32.4,474.6 c-0.3-2.4,0.4-4.9,2.1-6.7c1.6-1.8,4-2.9,6.4-2.9h127.7c4.1,0,7.7,2.9,8.4,7c0.1,0.8,14.7,76.9,62,151.8 c62.8,99.5,150.6,149.9,260.9,149.9c110.4,0,198.4-50.4,261.6-149.9c47.6-74.9,62.5-151.1,62.6-151.8c0.8-4,4.3-7,8.4-7h126.4 c2.5,0,4.8,1.1,6.4,2.9c1.6,1.9,2.4,4.3,2.1,6.8C967,479.3,952,588.8,887,700.1c-38.3,65.6-86.1,118-142,155.6 C674.9,902.7,592.1,926.5,498.7,926.5z M50.9,482.1c5,29.2,23.9,120.1,75.9,209.9c83.6,144.3,208.7,217.5,371.9,217.5 c163.4,0,289.1-73.3,373.5-218c52.4-89.7,71.7-180.2,76.8-209.4H839.6c-4.8,20.9-21.9,85.2-63.2,150.4 c-29,45.8-64.1,82.4-104,108.7c-50.1,32.9-108.1,49.6-172.3,49.6c-64.2,0-122.1-16.7-172.1-49.6 c-39.9-26.3-74.7-62.9-103.6-108.7c-41-65.1-57.8-129.4-62.6-150.4H50.9z"/>
        <rect x="484.4" y="699.9" class="st0" width="29.3" height="63.4"/>
        <path class="st0" d="M410.1,337.4c2.6,1.1,6.2,2.5,10.4,4.3C416.3,339.9,412.7,338.5,410.1,337.4z"/>
        <path class="st0" d="M410.1,337.4c-0.5-0.2-0.9-0.4-1.3-0.5l0,0C409.2,337,409.6,337.2,410.1,337.4z"/>
        <path class="st0" d="M429.3,345.7c-1.5-0.7-3-1.4-4.4-2C426.3,344.3,427.8,345,429.3,345.7L429.3,345.7z"/>
        <path class="st1" d="M442.1,352.1c1.7,0.9,3.5,1.8,5.2,2.8C445.6,353.9,443.8,353,442.1,352.1z"/>
        <path class="st0" d="M585.4,385.4c-0.8,1.9-1.7,3.7-2.6,5.5C583.8,389.1,584.6,387.2,585.4,385.4z"/>
        <path class="st0" d="M590.2,371.4c-0.5,1.8-1,3.7-1.7,5.5C589.2,375.1,589.7,373.3,590.2,371.4z"/>
        <path class="st0" d="M580.5,395.1c0.8-1.4,1.6-2.8,2.3-4.2C582.1,392.3,581.3,393.7,580.5,395.1L580.5,395.1z"/>
        <path class="st0" d="M455.6,607.2c-4.5-2.2-8.8-4.3-12.7-6.2c-2.6-1.3-5.1-2.5-7.4-3.7c-2.3-1.2-4.5-2.3-6.6-3.3 c-5.2-2.6-9.5-4.9-13.2-6.8c-1.5-0.8-2.9-1.5-4.1-2.2c-11.4-6.1-14.6-8.3-14.6-8.3s-0.9,3-1.8,8c-0.3,1.9-0.7,4-1,6.4 c-0.8,7.1-1.2,16.2,0.3,25.9c0.5,3.2,1.2,6.5,2.2,9.8c0.3,1.1,0.7,2.2,1,3.3c0.8,2.2,1.6,4.4,2.6,6.5c3,6.5,7.3,12.8,13.2,18.5 c2,1.9,4,3.7,6,5.4c30.7,25.1,68.6,26.1,68.6,26.1C488.1,686.6,504.1,630.6,455.6,607.2z"/>
        <path class="st0" d="M398.2,513.5c0.1,5.9,0.6,12.6,1.8,19.5c0.6,3.4,1.4,6.9,2.5,10.4c0.7,2.3,1.5,4.6,2.4,6.9 c0.9,2.3,1.9,4.5,3.1,6.8c1.1,2.2,2.4,4.4,3.8,6.5c1.4,2.1,3,4.1,4.7,6s3.6,3.8,5.6,5.5c8.1,6.9,16.7,12.3,24.9,16.4 c2.1,1,4.1,2,6.1,2.8c4,1.8,7.9,3.2,11.6,4.4c16.6,5.5,28.9,6.2,28.9,6.2s0.3-2.7,0.4-7.2c0-0.6,0-1.3,0-2c0-5-0.4-11.6-1.6-19 c-0.2-1.1-0.4-2.1-0.6-3.2c-0.4-2.2-0.9-4.4-1.5-6.6c-0.3-1.1-0.6-2.3-1-3.4c-1.7-5.7-4.1-11.5-7.3-17.1 c-5.1-9-12.3-17.4-22.4-24c-9.5-6.2-18-11.2-25.4-15.3c-0.9-0.5-1.8-1-2.7-1.5c-2.7-1.4-5.2-2.7-7.5-3.9 c-0.8-0.4-1.5-0.8-2.3-1.1c-1.5-0.7-2.9-1.4-4.3-2c-3.4-1.6-6.3-2.8-8.7-3.8c-5.8-2.4-8.9-3.3-8.9-3.3 C399.7,491.4,398,500.6,398.2,513.5z"/>
        <path class="st0" d="M509.3,509.8c0,0,2-0.2,5.5-0.7c1-0.1,2.1-0.3,3.3-0.5c0.6-0.1,1.2-0.2,1.9-0.3c1.3-0.2,2.7-0.5,4.2-0.8 c0.7-0.2,1.5-0.3,2.3-0.5c0.9-0.2,1.9-0.4,2.9-0.7c2-0.5,4.2-1.1,6.4-1.7c1.1-0.3,2.3-0.7,3.4-1c1.8-0.6,3.6-1.2,5.5-1.9 c4.7-1.7,9.4-3.7,14.1-6.2s9.2-5.3,13.4-8.6c1.7-1.3,3.3-2.7,4.9-4.2c25-23.5,20.4-75.8,20.4-75.8s-18.9,15.7-55.5,36 C505.2,463.3,509.3,509.8,509.3,509.8z"/>
        <path class="st0" d="M600.3,491.4c0,0-7.7,2.2-21.8,9.1c-0.7,0.4-1.5,0.7-2.3,1.1c-2.3,1.2-4.9,2.5-7.5,3.9 c-0.9,0.5-1.8,1-2.7,1.5c-7.4,4.1-15.9,9.1-25.4,15.3c-3.8,2.5-7.2,5.2-10.2,8.1c-2.8,2.7-5.2,5.6-7.4,8.5 c-0.4,0.6-0.9,1.2-1.3,1.8c-0.8,1.1-1.5,2.3-2.3,3.5c-2.2,3.6-4,7.2-5.5,10.9c-0.4,0.9-0.7,1.8-1.1,2.7c-9,23.7-6.3,47-6.3,47 s7.3-0.4,18.1-3.1c0.3-0.1,0.6-0.2,1-0.2c1.3-0.3,2.6-0.7,3.9-1.1c0.4-0.1,0.8-0.2,1.2-0.3c1.5-0.5,3.1-0.9,4.7-1.5 c1.8-0.6,3.7-1.3,5.7-2c1.9-0.7,3.9-1.5,5.9-2.4c2-0.9,4-1.8,6.1-2.8c3.1-1.5,6.2-3.2,9.3-5.1c2.1-1.3,4.2-2.6,6.3-4.1 c3.1-2.2,6.2-4.5,9.3-7.1c5.1-4.3,9.1-9.3,12.3-14.7c1.3-2.2,2.4-4.4,3.4-6.6c1-2.3,1.9-4.5,2.7-6.9c0.8-2.3,1.5-4.6,2.1-7 c0.3-1.2,0.6-2.3,0.8-3.5c0.7-3.5,1.3-6.9,1.7-10.3c0.3-2.2,0.4-4.4,0.6-6.5c0.1-2.1,0.2-4.2,0.2-6.2 C602,500.6,600.3,491.4,600.3,491.4z"/>
        <path class="st0" d="M403.9,438.9c0.1,1,0.3,2,0.5,3.1c0.4,2.1,0.8,4.2,1.2,6.3c0.2,1.1,0.5,2.1,0.8,3.2 c0.5,2.1,1.2,4.2,1.8,6.3c0.7,2.1,1.5,4.1,2.3,6.1c3,7,7,13.6,12.5,18.7c1.6,1.5,3.2,2.9,4.9,4.2c25.3,19.8,62.8,23,62.8,23 c0,0,0.7-7.7-1-18.2c-0.5-3.2-1.2-6.7-2.3-10.3c-0.3-0.9-0.5-1.8-0.8-2.7c-0.6-1.8-1.3-3.7-2-5.5c-4.6-11.2-12.6-22.5-26.4-30.1 c-9.2-5.1-17.2-9.9-24.2-14.2c-1.7-1.1-3.4-2.1-5-3.2c-4.8-3.1-8.9-5.9-12.4-8.3c-9.3-6.5-14-10.4-14-10.4c0,0-0.6,7.3-0.1,17.8 c0,0.9,0.1,1.8,0.2,2.7c0.1,1.8,0.3,3.7,0.5,5.7C403.3,434.9,403.6,436.9,403.9,438.9z"/>
        <path class="st0" d="M605.8,591.2c-1-8.7-2.8-14.3-2.8-14.3c0,0-10.1,6.9-58.6,30.4c-48.5,23.5-32.5,79.4-32.5,79.4 c0,0,15.2-0.4,34.2-7c2-0.7,4-1.5,6.1-2.3c2.1-0.8,4.2-1.8,6.3-2.8c2.1-1,4.2-2.1,6.3-3.3c2.1-1.2,4.2-2.5,6.4-3.8 c3.2-2.1,6.3-4.3,9.4-6.8c2-1.7,4.1-3.5,6-5.4c5.9-5.7,10.2-12,13.2-18.5c1-2.2,1.9-4.4,2.6-6.5c0.8-2.2,1.4-4.4,1.9-6.6 c0.5-2.2,1-4.4,1.3-6.5c0.7-4.3,1-8.5,1-12.4c0-3-0.1-5.8-0.3-8.4C606.2,594.4,606,592.7,605.8,591.2z"/>
        <path class="st0" d="M547.5,357.8c9.4-5.6,19.3-10.4,27.6-14.1c3.8-1.7,7.2-3.2,10.1-4.4c1.2-0.5,2.2-0.9,3.2-1.3 c3.9-1.6,6.3-2.5,6.3-2.5s0.3,8.5-1.4,20.4c-0.3,2.4-0.8,4.9-1.3,7.5c-0.5,2.6-1.2,5.3-1.9,8c-0.5,1.8-1,3.7-1.7,5.5 c-0.9,2.8-2,5.6-3.2,8.4c-0.8,1.9-1.7,3.7-2.6,5.5c-0.7,1.4-1.5,2.8-2.3,4.2c-1.3,2.2-2.7,4.4-4.3,6.5 c-20.1,27.2-66.9,28.8-66.9,28.8c0,0-1.3-16.6,4.4-34.1c3.4-10.5,9.2-21.2,19.3-28.8C537.4,364.1,542.4,360.8,547.5,357.8z M405.2,335.5c0,0-0.1,2.4,0.1,6.5c0,0.5,0,1,0.1,1.6c0.3,5.6,1.1,13.6,3.1,22.4c0.4,1.8,0.8,3.6,1.3,5.4 c1,3.7,2.2,7.4,3.7,11.1c0.4,0.9,0.8,1.9,1.2,2.8c2.4,5.6,5.4,11.1,9.2,16.2c20.1,27.2,66.9,28.8,66.9,28.8c0,0,0.1-1,0.1-2.9 c0-1.1,0-2.5,0-4.1c-0.1-3.8-0.4-8.8-1.4-14.4c-0.7-4-1.6-8.3-3-12.7c-3.4-10.5-9.2-21.2-19.3-28.8c-6-4.5-12.8-8.8-19.8-12.6 c-1.7-1-3.5-1.9-5.2-2.8c-1.7-0.9-3.4-1.8-5.1-2.6s-3.4-1.7-5-2.5c-0.9-0.4-1.8-0.9-2.7-1.3c-1.5-0.7-3-1.4-4.4-2 c-1.5-0.7-3-1.3-4.4-1.9c-4.2-1.8-7.8-3.3-10.4-4.3c-0.5-0.2-0.9-0.4-1.3-0.5C406.5,336,405.2,335.5,405.2,335.5z M457.8,327.4 c0,5.6,2.7,11.2,6.7,16.5c0.4,0.5,0.8,1.1,1.2,1.6c1.7,2.1,3.6,4.1,5.6,6.1c1,1,2,1.9,3.1,2.9c1.6,1.4,3.2,2.7,4.8,4 c3.7,3,7.4,5.6,10.7,7.7c0.9,0.6,1.8,1.2,2.6,1.7c1.3,0.8,2.4,1.5,3.4,2.1c0.6,0.4,1.3,0.7,2,0.8c0.7,0.2,1.4,0.3,2.1,0.3 c0.8,0,1.6-0.1,2.3-0.4c0.6-0.2,1.2-0.4,1.7-0.8c10.6-6.4,38.1-24.7,38.1-42.5c0-22.1-42.1-58.6-42.1-58.6s-1.5,1.3-3.9,3.5 c-1.6,1.5-3.6,3.4-5.9,5.6c-0.6,0.6-1.1,1.1-1.7,1.7c-1.8,1.8-3.7,3.7-5.6,5.8c-0.6,0.7-1.3,1.4-2,2.1c-2.6,2.9-5.3,6-7.8,9.1 c-0.6,0.8-1.3,1.6-1.9,2.4C463.7,308.9,457.8,319.2,457.8,327.4z"/>
        <g>
          <path class="st2" d="M489.4,408.9c-0.7-4-1.6-8.3-3-12.7c-3.4-10.5-9.2-21.2-19.3-28.8c-6-4.5-12.8-8.8-19.8-12.6 c-1.7-1-3.5-1.9-5.2-2.8c-1.7-0.9-3.4-1.8-5.1-2.6c-1.7-0.8-3.4-1.7-5-2.5c-0.9-0.4-1.8-0.9-2.7-1.3c-1.5-0.7-3-1.4-4.4-2 c-1.5-0.7-3-1.3-4.4-1.9c-4.2-1.8-7.8-3.3-10.4-4.3c-0.5-0.2-0.9-0.4-1.3-0.5c-2.3-0.9-3.6-1.4-3.6-1.4c0,0-0.1,2.4,0.1,6.5 c0,0.5,0,1,0.1,1.6c0.3,5.6,1.1,13.6,3.1,22.4c0.4,1.8,0.8,3.6,1.3,5.4c1,3.7,2.2,7.4,3.7,11.1c0.4,0.9,0.7,1.9,1.2,2.8 c2.4,5.6,5.4,11.1,9.2,16.2c20.1,27.2,66.9,28.8,66.9,28.8c0,0,0.1-1,0.1-2.9c0-1.1,0-2.5,0-4.1 C490.6,419.6,490.3,414.6,489.4,408.9z"/>
          <path class="st2" d="M542,327.4c0-22.1-42.1-58.6-42.1-58.6s-1.5,1.3-3.9,3.5c-1.6,1.5-3.6,3.4-5.9,5.6 c-0.6,0.6-1.1,1.1-1.7,1.7c-1.8,1.8-3.7,3.7-5.6,5.8c-0.6,0.7-1.3,1.4-2,2.1c-2.6,2.9-5.3,6-7.8,9.1c-0.6,0.8-1.3,1.6-1.9,2.4 c-7.4,9.6-13.3,20-13.3,28.2c0,5.6,2.7,11.2,6.7,16.5c0.4,0.5,0.8,1.1,1.2,1.6c1.7,2.1,3.6,4.1,5.6,6.1c1,1,2,1.9,3.1,2.9 c1.6,1.4,3.2,2.7,4.8,4c3.7,3,7.4,5.6,10.7,7.7c0.9,0.6,1.8,1.2,2.6,1.7c1.3,0.8,2.4,1.5,3.4,2.1c0.6,0.4,1.3,0.7,2,0.8 c0.7,0.2,1.4,0.3,2.1,0.3c0.8,0,1.6-0.1,2.3-0.4c0.6-0.2,1.2-0.4,1.7-0.8C514.5,363.6,542,345.3,542,327.4z"/>
          <path class="st2" d="M588.5,338c-1,0.4-2.1,0.8-3.2,1.3c-2.9,1.2-6.4,2.7-10.1,4.4c-8.3,3.7-18.2,8.6-27.6,14.1 c-5.1,3-10.1,6.3-14.6,9.7c-10.1,7.6-15.9,18.3-19.3,28.8c-5.6,17.4-4.4,34.1-4.4,34.1c0,0,46.8-1.6,66.9-28.8 c1.5-2.1,3-4.3,4.3-6.5c0.8-1.4,1.6-2.8,2.3-4.2c0.9-1.8,1.8-3.7,2.6-5.5c1.2-2.8,2.2-5.6,3.2-8.4c0.6-1.9,1.2-3.7,1.7-5.5 c0.7-2.7,1.4-5.4,1.9-8c0.5-2.6,0.9-5.1,1.3-7.5c1.7-11.9,1.4-20.4,1.4-20.4S592.4,336.4,588.5,338z"/>
          <path class="st0" d="M415.8,319.2l1.4,0.5c3.6,1.4,7.3,3,11,4.6c0.4,0.2,0.8,0.4,1.2,0.5V139.3c0-5.7-4.6-10.2-10.2-10.2h0 c-5.7,0-10.2,4.6-10.2,10.2v177.3l2.4,0.8C412.1,317.8,414.8,318.8,415.8,319.2z"/>
          <path class="st1" d="M438.8,327.4c0-11.7,5.6-24.7,17.3-39.8c0.7-0.9,1.4-1.8,2.1-2.7c0,0,0-0.1,0.1-0.1V109.5 c0-5.7-4.6-10.2-10.2-10.2h0c-5.7,0-10.2,4.6-10.2,10.2v219.2c0.3,0.2,0.7,0.3,1,0.5C438.8,328.6,438.8,328,438.8,327.4z"/>
          <path class="st0" d="M468.9,272.6c1.9-2.1,4-4.2,6-6.3c0.6-0.6,1.3-1.3,1.9-1.9c2.1-2.1,4.2-4.1,6.3-6c2-1.9,3.4-3.1,4-3.7 V83.7c0-5.7-4.6-10.2-10.2-10.2h0c-5.7,0-10.2,4.6-10.2,10.2V275c0,0,0.1-0.1,0.1-0.1C467.5,274.1,468.2,273.3,468.9,272.6z"/>
          <path class="st0" d="M533.3,275.2V83.7c0-5.7-4.6-10.2-10.2-10.2l0,0c-5.7,0-10.2,4.6-10.2,10.2v171.3 C515,256.8,523.9,264.8,533.3,275.2z"/>
          <path class="st1" d="M561,329.3c0.4-0.2,0.8-0.4,1.2-0.6V109.5c0-5.7-4.6-10.2-10.2-10.2h0c-5.7,0-10.2,4.6-10.2,10.2v175.6 c12.9,16.2,19.3,30.1,19.3,42.4C561.1,328,561,328.7,561,329.3z"/>
          <path class="st0" d="M581.4,320.3c4.2-1.7,6.8-2.6,6.9-2.7l2.9-1.1V139.3c0-5.7-4.6-10.2-10.2-10.2l0,0 c-5.7,0-10.2,4.6-10.2,10.2v185.5c2.4-1.1,4.8-2.1,7.3-3.1C579.2,321.2,580.3,320.7,581.4,320.3z"/>
        </g>
      </g>
    </g>
    <g>
      <path d="M148.9,563.5c0.7,0.3,1.4,0.4,2.1,0.4c0.7,0,1.5-0.2,2.2-0.5c1.4-0.6,2.4-1.7,3-3.1c0.6-1.5,0.6-2.9,0-4.4 c-0.6-1.4-1.7-2.4-3.1-3c-1.5-0.6-2.9-0.6-4.3,0c-1.4,0.6-2.4,1.7-3,3.1c-0.6,1.5-0.6,2.9,0,4.3 C146.4,561.9,147.5,562.9,148.9,563.5z"/>
      <path d="M153.9,564.9c-1.4,0.6-2.4,1.7-3,3.2c-0.6,1.5-0.6,2.9,0,4.3c0.6,1.4,1.7,2.4,3.1,3c0.7,0.3,1.4,0.4,2.1,0.4 c0.7,0,1.5-0.2,2.2-0.5c1.4-0.6,2.4-1.6,3-3.1c0.6-1.5,0.6-2.9,0-4.4c-0.6-1.4-1.6-2.4-3.1-3 C156.8,564.3,155.3,564.3,153.9,564.9z"/>
      <path d="M175.4,603.1c0.6,0.2,1.2,0.3,1.8,0.3c0.9,0,1.7-0.2,2.5-0.6c1.4-0.7,2.3-1.8,2.8-3.3c0.5-1.5,0.4-3-0.4-4.4 c-0.7-1.4-1.8-2.3-3.3-2.8c-1.5-0.5-3-0.4-4.4,0.4c-1.3,0.7-2.3,1.8-2.7,3.3c-0.5,1.5-0.4,3,0.4,4.4S173.9,602.6,175.4,603.1z"/>
      <path d="M180.4,604.2c-1.3,0.7-2.3,1.8-2.7,3.3c-0.5,1.5-0.4,3,0.4,4.4c0.7,1.4,1.8,2.3,3.3,2.8c0.6,0.2,1.2,0.3,1.8,0.3 c0.9,0,1.7-0.2,2.5-0.6c1.4-0.7,2.3-1.8,2.8-3.3c0.5-1.5,0.4-3-0.4-4.4c-0.7-1.4-1.8-2.3-3.3-2.8 C183.3,603.3,181.8,603.4,180.4,604.2z"/>
      <path d="M196.9,659.8L196.9,659.8c0.5,0.1,0.9,0.2,1.3,0.2c1.1,0,2.1-0.3,3-0.9c1.3-0.8,2.1-2,2.4-3.6c0.3-1.6,0.1-3-0.8-4.3 c-0.8-1.3-2.1-2.1-3.6-2.5c-1.5-0.3-3-0.1-4.2,0.7c-1.3,0.8-2.1,2.1-2.5,3.6c-0.3,1.5-0.1,3,0.8,4.3 C194.1,658.7,195.3,659.5,196.9,659.8z"/>
      <path d="M199.6,664L199.6,664c-0.3,1.6-0.1,3,0.8,4.3c0.8,1.3,2,2.1,3.6,2.4c0.4,0.1,0.9,0.1,1.3,0.1c1.1,0,2.1-0.3,3-0.9 c1.3-0.8,2.1-2,2.4-3.6c0.3-1.5,0.1-3-0.7-4.2c-0.8-1.3-2.1-2.1-3.6-2.5c-1.6-0.3-3-0.1-4.2,0.7 C200.7,661.2,199.9,662.4,199.6,664z"/>
      <path d="M209.8,659.2L209.8,659.2c0.4,0.1,0.9,0.1,1.3,0.1c1.1,0,2.1-0.3,3-0.9c1.3-0.8,2.1-2,2.4-3.6c0.3-1.6,0.1-3-0.7-4.3 c-0.8-1.3-2.1-2.1-3.6-2.4c-1.6-0.3-3-0.1-4.3,0.8c-1.3,0.8-2.1,2.1-2.5,3.6c-0.3,1.5-0.1,3,0.8,4.3 C207,658,208.2,658.9,209.8,659.2z"/>
      <path d="M248.4,686.6L248.4,686.6c-0.9-1.1-2.7-0.2-4.3,0.7c-0.6,0.4-1.5,0.4-2.6,0.2c-1.9-0.3-3.9,0.2-6,1.7 c-1.2-1.3-2.7-2.3-4.4-2.9c-2.4-0.8-4.6-0.5-6.3,0.9c-1,0.8-0.9,1.8-0.5,2.3c0.3,0.3,0.7,0.6,1.6,1.1c0.7,0.4,0.9,0.5,0.9,0.5 c0.3,0.4,1.3,1.6-1.7,4l-31.9,25.2L179.5,703l26-16.9c2.1-1.4,1.6-2.7,1.3-3.2c-0.8-1.2-2.5-0.6-4.4,0.2c-0.2,0.1-0.8,0.3-3,0 c-2-0.3-3.7,0-5.2,0.9c-0.6,0.4-1.2,1-1.8,1.7c-1.1-1.1-2.5-2-4.3-2.6c-2.5-0.9-4.2-0.9-5.3-0.2c-1.2,0.8-1.1,1.8-0.7,2.5 c0.2,0.3,0.5,0.6,1.1,1c0.5,0.4,0.6,0.5,0.6,0.5c0.3,0.4,0.2,0.7,0.1,0.9c-0.1,0.3-0.5,0.8-1.4,1.4l-8.4,5.5l-5.4-8.3l24.2-15.7 c2.1-1.4,1.6-2.7,1.2-3.2c-0.8-1.2-2.6-0.5-4.3,0.3c-0.2,0.1-1,0.3-3.1,0c-2-0.3-3.7,0-5.2,1c-0.6,0.4-1.2,1-1.8,1.7 c-1.1-1.1-2.6-2-4.5-2.6c-2.4-0.8-4.1-0.8-5.2-0.1c-1,0.6-1.2,1.6-0.6,2.5c0.2,0.3,0.5,0.6,1,1c0.4,0.3,0.6,0.5,0.6,0.6 c0.2,0.3,0.6,1-1.3,2.3l-6.5,4.2l-5.4-8.4l21.8-14.2c2.1-1.4,1.6-2.7,1.3-3.2c-0.8-1.2-2.5-0.6-4.4,0.2c-0.2,0.1-0.8,0.3-3,0 c-2-0.3-3.7,0-5.2,1c-0.6,0.4-1.2,0.9-1.8,1.7c-1.1-1.1-2.5-2-4.3-2.6c-2.5-0.9-4.2-0.9-5.3-0.2c-1.2,0.8-1.1,1.8-0.7,2.5 c0.2,0.3,0.5,0.6,1.1,1c0.5,0.4,0.6,0.5,0.6,0.5c0.2,0.3,0.6,1-1.3,2.3l-4.2,2.7l-12.4-19.1l37-19.2c2.4-1.2,1.8-2.8,1.5-3.3 c-0.5-1-1.9-1-3.2-0.8c-2.1,0.2-4.8-0.9-8-3.4c-3.9-3.1-8.1-4-12.4-2.8c-1.2-1.6-2.9-2.8-5.2-3.4c-2.4-0.6-5-0.5-7.6,0.3 c-2.8,0.9-5,0.8-6.9-0.5c-1.2-0.8-3-1.9-4.5-1.2c-0.7,0.4-1.1,1-1.2,1.8c0,0.6,0.1,1.3,0.6,2.1l9.9,19.2l-3.4,1.8L117.9,597 l31.5-13.6c0.8-0.3,1.3-0.7,1.6-1.2c0.4-0.6,0.5-1.3,0.2-2c-0.4-1-1.8-1.1-3.3-1c-2.1,0.1-4.7-1.2-7.7-3.9 c-3.7-3.3-7.8-4.5-12.2-3.6c-1.1-1.7-2.7-3-4.9-3.7c-2.4-0.8-4.9-0.9-7.6-0.2c-2.8,0.7-5.1,0.4-6.9-1c-1.2-0.9-2.9-2.1-4.4-1.5 c-0.7,0.3-1.1,0.9-1.2,1.7c-0.1,0.6,0.1,1.3,0.4,2.1l8.6,19.8l-7,3l2.8,6.5l-0.8,0.4l24.2,46.8l-1.3,0.9l39.7,61.1l0,0l0.9,1.3 l0.1-0.1l20.4,25.8l56.3-44.5C249.4,688.4,248.8,687.1,248.4,686.6z M118.2,576.9c2.1-0.1,3.9,0.9,5.3,3.2l0.4,0.7l0.8-0.3 c2.3-0.9,4.1-0.7,5.4,0.5l-8.5,3.7L118.2,576.9z M149.3,626.6l-3.9-7.5c2.1-0.2,3.9,0.7,5.5,2.8l0.5,0.6l0.7-0.3 c2.3-1,4-1,5.5,0.2L149.3,626.6z"/>
      <path d="M253.3,742.8c-0.2,0.1-0.9,0.5-3,0.6c-2,0.1-3.6,0.8-4.8,2c-0.5,0.5-1,1.2-1.4,2c-1.3-0.9-2.9-1.5-4.9-1.7 c-2.5-0.3-4.1,0-5.1,0.9c-1,1-0.7,2-0.2,2.6c0.2,0.2,0.6,0.5,1.2,0.8c0.5,0.3,0.7,0.4,0.7,0.4c0.3,0.3,0.3,0.6,0.3,0.8 c-0.1,0.3-0.3,0.9-1.1,1.7l-7.2,7l-15.9-16.2l31-27.1c1.1-0.9,2-1.5,2.7-1.6c0.6-0.1,1.1,0.1,1.5,0.6c0,0,0.1,0.2,0.4,1 c0.3,0.9,0.5,1.4,0.8,1.7c0.3,0.4,0.8,0.6,1.3,0.5c0.3-0.1,0.7-0.2,1-0.5c1.7-1.5,2.4-3.5,2-6c-0.3-1.8-0.9-3.4-2-4.8 c1.8-1.8,2.7-3.7,2.7-5.6c0-1.1,0.2-2,0.7-2.5c1.3-1.5,2.4-3,1.5-4.1c-0.5-0.5-1.1-0.8-1.8-0.6c-0.5,0.1-1.1,0.4-1.7,0.9 l-54,47.2l4,4.6l-0.5,0.5l25.8,26.4l29.6-29c1.8-1.8,1-3,0.6-3.4C256.5,740.7,254.8,741.7,253.3,742.8z"/>
      <path d="M212.3,769c-1.6,0-2.9,0.5-4.1,1.6c-1.1,1.1-1.6,2.4-1.6,4c0,1.6,0.5,2.9,1.6,4c1.1,1.1,2.4,1.7,4,1.7c0,0,0,0,0.1,0 c1.6,0,2.9-0.5,3.9-1.6c1.1-1.1,1.7-2.4,1.7-4c0-1.6-0.5-2.9-1.6-4.1C215.3,769.6,213.9,769,212.3,769z"/>
      <path d="M300.9,769.5c0.2,1.6,1,2.8,2.2,3.7c1,0.8,2.1,1.1,3.4,1.1c0.3,0,0.6,0,0.9-0.1c1.6-0.2,2.8-1,3.8-2.2 c0.9-1.2,1.3-2.6,1-4.2c-0.2-1.6-1-2.8-2.2-3.8c-1.2-0.9-2.6-1.3-4.2-1.1c-1.6,0.2-2.9,0.9-3.8,2.1 C301,766.4,300.6,767.9,300.9,769.5z"/>
      <path d="M292.7,765.4L292.7,765.4c1,0.8,2.1,1.1,3.4,1.1c0.3,0,0.6,0,0.9-0.1c1.6-0.2,2.8-1,3.8-2.2c0.9-1.2,1.3-2.6,1-4.2 c-0.2-1.6-1-2.8-2.2-3.8c-1.2-0.9-2.6-1.3-4.2-1c-1.6,0.2-2.8,0.9-3.7,2.1c-0.9,1.2-1.3,2.7-1.1,4.2 C290.8,763.2,291.5,764.5,292.7,765.4z"/>
      <path d="M294.2,835.7c-0.4-1.5-1.2-2.7-2.5-3.5c-1.3-0.8-2.8-1-4.3-0.6c-1.5,0.4-2.7,1.3-3.5,2.6c-0.8,1.3-1,2.7-0.6,4.3 c0.4,1.5,1.3,2.7,2.6,3.5c0.9,0.5,1.8,0.8,2.8,0.8c0.5,0,1-0.1,1.5-0.2c1.5-0.4,2.7-1.2,3.5-2.5 C294.3,838.7,294.5,837.3,294.2,835.7z"/>
      <path d="M302.8,838.9L302.8,838.9c-1.3-0.8-2.8-1-4.3-0.6c-1.5,0.4-2.7,1.3-3.5,2.6c-0.8,1.3-1,2.7-0.6,4.3s1.3,2.7,2.6,3.5 c0.9,0.5,1.8,0.8,2.8,0.8c0.5,0,1-0.1,1.5-0.2c1.5-0.4,2.7-1.2,3.5-2.5c0.8-1.3,1-2.8,0.6-4.3C304.9,840.8,304,839.6,302.8,838.9 z"/>
      <path d="M386.5,822.6c-0.6-0.2-1.3,0-1.8,0.5c-0.3,0.3-0.6,0.9-0.8,1.6c-0.1,0.2-0.2,0.7-0.2,2.1c-0.1,1.2-0.1,1.5-0.1,1.5 c-0.4,1.1-1.2,1.8-2.5,2.2c-4.6,1.2-7.5,3.5-8.6,6.9c-0.2,0.7-0.4,1.6-0.5,2.7c-2.1,0.3-4.1,1.1-5.9,2.4 c-2.1,1.5-3.5,3.2-4.1,5.1c-0.4,1.2-0.6,2.3-0.6,3.2l-17.1-5.5l27.4-57.3c0.3-0.7,0.5-1.3,0.5-1.9c-0.1-0.7-0.4-1.3-1.1-1.6 c-1.3-0.6-2.5,1-3.5,2.5c-0.4,0.6-1.1,1-2.3,1.3c-1.9,0.5-3.4,1.9-4.7,4.1c-1.7-0.7-3.5-0.9-5.2-0.6c-2.5,0.3-4.3,1.5-5.3,3.6 c-0.6,1.2,0,2,0.6,2.3c0.4,0.2,0.9,0.3,1.9,0.3c0.8,0,1,0.1,1,0.1c0.6,0.3,0.9,0.7,1,1.3c0.1,0.7-0.2,1.8-0.8,3.1l-17.5,36.7 l-19.9-9.5l16.3-27.4c1.3-2.2,0.2-3.1-0.3-3.5c-1.2-0.7-2.6,0.7-3.7,2.1c-0.2,0.2-0.7,0.7-2.8,1.4c-1.9,0.6-3.3,1.7-4.2,3.1 c-0.4,0.6-0.7,1.4-0.9,2.3c-1.5-0.5-3.2-0.7-5.2-0.4c-2.5,0.4-4,1-4.7,2.2c-0.7,1.2-0.2,2.1,0.5,2.6c0.3,0.2,0.7,0.3,1.4,0.4 c0.6,0.1,0.8,0.2,0.8,0.2c0.3,0.2,1,0.6-0.2,2.6l-5.1,8.6l-21.6-12.9l20.6-27.4c0.5-0.7,0.8-1.3,0.8-1.9c0.1-0.7-0.2-1.4-0.8-1.8 h0c-0.9-0.7-2.1-0.1-3.3,0.7c-1.8,1.1-4.7,1.3-8.7,0.4c-4.9-1-9-0.1-12.4,2.9c-1.8-1-3.8-1.2-6.1-0.8c-2.5,0.5-4.7,1.7-6.7,3.6 c-2.1,2-4.3,2.8-6.5,2.5c-1.5-0.2-3.6-0.4-4.5,0.9c-0.5,0.6-0.6,1.4-0.2,2.1c0.2,0.5,0.7,1.1,1.4,1.6l17.2,13l-4.6,6.1l7.3,5.5 l-0.4,0.7l30.3,18l-0.4,0.8l31.1,14.9l1.2-2.5l-1.5,4.7l61.9,20l3-9.3L388,824.1C387.6,823.1,387,822.7,386.5,822.6z M289.2,790.9l-5.6,7.4l-6.8-5.1c1.8-1.2,3.8-1.1,6.1,0.1l0.7,0.4l0.5-0.6C285.8,791.3,287.4,790.5,289.2,790.9z M384.6,858.1 l5.1-5.2l3.3,7.9L384.6,858.1z M370.9,851.5c0.8-2.2,2.1-3.2,4.1-3.2c1.3,0,3.2-0.2,3.6-1.6c0.1-0.2,0.1-0.4,0.2-1.5 c0-0.8,0.1-1.1,0.2-1.3c0.8-2.5,2.5-3.7,5.4-3.6l1.7,4l-10.7,10.9l-4.5-1.5C370.8,852.8,370.8,852.1,370.9,851.5z"/>
      <path d="M441.7,802.3l0.6-0.1l3-6.3l-9.1,1.6c-1.7-0.9-2.7-2.3-3.1-4c0.5-0.5,1-0.5,1.4-0.5c0.8,0.1,1.2,0.4,1.5,0.8 c0.5,1,1,1.5,1.6,1.6c0.9,0.1,1.8-0.2,2.8-1.2c0.9-0.8,1.4-1.8,1.6-2.7c0.2-1-0.1-1.8-0.8-2.4c-0.6-0.5-1.4-0.9-2.6-1.1 c-2.1-0.3-4.4,0.3-6.9,1.8c-3,1.9-4.6,3.6-4.8,5.2c-0.3,2.1,0.5,3.9,2.4,5.5c-1.5,1.3-2.4,3-2.7,5.2l-0.4,2.3l1.9-1.3 C431.9,804.4,436.4,802.9,441.7,802.3z"/>
      <path d="M459.4,822.5c-1.3-1.2-2.9-2-4.6-2.4c0.2-2.5-0.2-4.6-1.5-6.1c-0.7-0.9-1.1-1.7-1.1-2.4c0-1.8-0.1-3.8-1.5-4.1 c-0.6-0.1-2.1-0.1-2.5,2.5l-7.2,44.4c-1.4,0.5-2.5,1-3.3,1.4c-1.5-1.3-2.3-2-2.7-2.4l7.2-44.4c0.1-0.8,0.1-1.4-0.1-1.9 c-0.2-0.7-0.8-1.1-1.4-1.2c-1.4-0.2-2.1,1.5-2.7,3.4c-0.2,0.7-0.8,1.3-1.7,1.9c-1.7,1-2.8,2.8-3.4,5.3c-1.8-0.1-3.6,0.1-5.2,0.9 c-2.3,1-3.7,2.7-4,4.9c-0.2,1.3,0.5,1.9,1.2,2c0.4,0.1,1,0,1.9-0.3c0.8-0.2,1-0.2,1-0.2c0.7,0.1,1.1,0.4,1.3,1 c0.3,0.7,0.3,1.8,0.1,3.2l-4.8,29.4l0.6,0.4c1.4,0.9,2.5,1.9,3.2,2.9c-5.3,2.9-8.3,6.7-8.8,11.3c-0.7,6.1,1.4,11.1,6.3,14.7 c2.5,1.9,3.5,4,3.1,6.5c0,0,0,0.1-0.2,0.3c-0.3,0.4-0.5,0.8-0.5,1.2c-0.1,0.5,0,1,0.2,1.4c0.2,0.3,0.5,0.7,1.2,0.8 c0.2,0,0.3,0,0.5,0c1,0,2.2-0.5,3.5-1.6c1.6-1.4,2.6-3.2,3.1-5.6c3.3-0.5,6.2-1.9,8.8-4.2c2.8-2.4,4.4-5.3,5-8.5 c0.8-5.1-1-9.8-5.4-13.9c2.4-1,3.6-1.2,4.3-1.3l0.8,0l4.8-29.5c0.6-3.8,2.1-3.6,2.6-3.5c0,0,0.2,0.1,0.9,0.5 c0.8,0.5,1.3,0.8,1.7,0.8c0.5,0.1,1-0.1,1.3-0.4c0.3-0.3,0.4-0.6,0.5-1.1C462.1,826.2,461.3,824.2,459.4,822.5z M430,873.8 c0.2-1.4,0.8-2.4,1.9-3.2c0.8-0.6,1.7-0.9,2.7-0.9c0.3,0,0.6,0,0.9,0.1c1.3,0.2,2.3,0.8,3.1,1.9c0.8,1.1,1,2.3,0.8,3.6 c-0.2,1.3-0.8,2.3-1.9,3.1c-1.1,0.8-2.2,1-3.5,0.8c-1.3-0.2-2.4-0.8-3.1-1.9C430,876.3,429.7,875.2,430,873.8z"/>
      <path d="M478.5,810.3L478.5,810.3c-1.4-0.1-2,1.7-2.4,3.6c-0.2,0.7-0.7,1.4-1.6,2.1c-1.6,1.2-2.5,3-2.9,5.6 c-1.8,0-3.5,0.5-5.1,1.3c-2.2,1.2-3.4,3-3.6,5.3c-0.1,1.3,0.7,1.9,1.4,1.9c0.4,0,1-0.1,1.8-0.4c0.8-0.3,1-0.3,1-0.3 c0.7,0,1.1,0.3,1.4,0.8c0.4,0.7,0.5,1.7,0.4,3.1l-3.6,50.9l9.9,0.7l5-71.6C480.5,810.7,479.1,810.4,478.5,810.3z"/>
      <path d="M530.9,834.4c0.1,0,0.3,0,0.4,0c1.5-0.1,2.9-0.8,3.9-2c1-1.2,1.5-2.6,1.4-4.1c-0.1-1.5-0.8-2.8-2-3.8 c-1.2-1-2.6-1.5-4.1-1.4c-1.5,0.1-2.8,0.8-3.9,2c-1.1,1.2-1.5,2.6-1.4,4.1c0.1,1.6,0.8,2.9,2,3.9 C528.3,833.9,529.6,834.4,530.9,834.4z"/>
      <path d="M518,835.3c0.1,0,0.3,0,0.4,0c1.5-0.1,2.9-0.8,3.9-2c1-1.2,1.5-2.6,1.4-4.1c-0.1-1.5-0.8-2.8-2-3.8 c-1.2-1-2.6-1.5-4.1-1.4c-1.5,0.1-2.8,0.8-3.8,2c-1,1.2-1.5,2.6-1.4,4.1c0.1,1.5,0.8,2.9,2,3.9 C515.4,834.8,516.6,835.3,518,835.3z"/>
      <path d="M578.4,885.1c-1.3-0.9-2.7-1.2-4.2-1c-1.5,0.3-2.8,1.1-3.7,2.4c-0.9,1.3-1.2,2.7-0.9,4.3c0.3,1.5,1.1,2.7,2.4,3.6 c1,0.7,2.1,1,3.2,1c0.3,0,0.7,0,1-0.1c1.5-0.3,2.7-1.1,3.6-2.4c0.9-1.3,1.2-2.7,1-4.2C580.5,887.2,579.7,886,578.4,885.1z"/>
      <path d="M565.6,887.4L565.6,887.4c-1.3-0.9-2.7-1.2-4.2-1c-1.5,0.3-2.8,1.1-3.7,2.4c-0.9,1.3-1.2,2.7-0.9,4.3 c0.3,1.5,1.1,2.7,2.4,3.6c1,0.7,2.1,1,3.2,1c0.3,0,0.7,0,1-0.1c1.5-0.3,2.7-1.1,3.6-2.4s1.2-2.7,1-4.2 C567.7,889.5,566.9,888.3,565.6,887.4z"/>
      <path d="M630,809.3L630,809.3c0.7,0.3,1.5,0.4,2.2,0.4c0.7,0,1.4-0.1,2.1-0.4c1.4-0.6,2.5-1.7,3-3.1c0.6-1.5,0.6-2.9,0-4.4 c-0.6-1.4-1.7-2.4-3.1-3c-1.5-0.6-2.9-0.6-4.4,0c-1.4,0.6-2.4,1.6-3,3.1c-0.6,1.5-0.6,2.9,0,4.4 C627.5,807.7,628.6,808.8,630,809.3z"/>
      <path d="M648.1,801.1L648.1,801.1c0.6,0.2,1.1,0.3,1.7,0.3c0.9,0,1.8-0.2,2.6-0.7c1.4-0.7,2.3-1.9,2.7-3.4c0.4-1.5,0.3-3-0.4-4.3 c-0.7-1.4-1.9-2.3-3.4-2.7c-1.5-0.4-3-0.3-4.3,0.4c-1.3,0.7-2.2,1.9-2.7,3.4c-0.4,1.5-0.3,3,0.4,4.3 C645.4,799.8,646.6,800.7,648.1,801.1z"/>
      <path d="M659.4,795L659.4,795c0.6,0.2,1.1,0.3,1.7,0.3c0.9,0,1.8-0.2,2.7-0.7c1.4-0.7,2.3-1.9,2.7-3.4c0.4-1.5,0.3-3-0.4-4.3 c-0.7-1.4-1.9-2.3-3.4-2.7c-1.5-0.4-3-0.3-4.3,0.4c-1.4,0.7-2.3,1.9-2.7,3.4c-0.4,1.5-0.3,3,0.4,4.3 C656.8,793.6,657.9,794.5,659.4,795z"/>
      <path d="M673.8,757.6c-1.2,0.8-0.5,2.6,0.3,4.3c0.3,0.6,0.3,1.5,0,2.6c-0.5,1.9-0.1,3.9,1.2,6.1c-1.4,1.1-2.5,2.5-3.2,4.1 c-1,2.4-0.9,4.5,0.3,6.4c0.7,1.1,1.7,1,2.3,0.6c0.3-0.2,0.7-0.7,1.2-1.5c0.4-0.7,0.6-0.9,0.6-0.9c0.6-0.4,1.1-0.4,1.6-0.2 c0.7,0.3,1.4,1.1,2.2,2.2l22.5,33.9l-18.2,12.1l-15.2-27.8c-0.4-0.7-0.8-1.2-1.2-1.4c-0.6-0.4-1.3-0.4-1.9,0 c-1.3,0.7-0.7,2.6-0.1,4.3c0.1,0.2,0.2,1-0.2,3.1c-0.4,2-0.2,3.7,0.6,5.2c0.3,0.6,0.9,1.3,1.6,1.9c-1.2,1-2.2,2.4-3,4.3 c-1,2.4-1.1,4-0.5,5.1c0.7,1.2,1.8,1.2,2.5,0.9c0.3-0.2,0.6-0.5,1.1-1c0.4-0.5,0.6-0.6,0.6-0.6c0.4-0.2,0.7-0.2,0.9,0 c0.3,0.2,0.7,0.5,1.3,1.5l4.8,8.8L654,843.6l-12.5-29.4c-0.3-0.7-0.7-1.2-1.1-1.5c-0.6-0.4-1.2-0.5-1.9-0.2 c-1.3,0.6-0.9,2.5-0.5,4.3c0.1,0.2,0.1,1-0.5,3c-0.6,1.9-0.6,3.7,0.1,5.2c0.3,0.7,0.7,1.4,1.4,2.1c-1.3,0.9-2.4,2.2-3.4,4 c-1.2,2.3-1.5,3.9-1,5.1c0.2,0.6,0.6,1,1,1.1c0.3,0.1,0.7,0.2,1.3,0c0.3-0.1,0.7-0.4,1.2-0.9c0.4-0.4,0.6-0.5,0.6-0.5 c0.3-0.1,1.1-0.5,2,1.7l3.9,9.2l-19.9,8.5c-2.1-3.3-5.8-5.7-10.9-7c-3.6-0.9-5.8-2.5-6.4-4.6c-0.1-0.2-0.1-0.3-0.1-0.4 c0-0.3-0.1-0.5-0.1-0.8c-0.1-0.3-0.6-1.5-2.4-1c-1.3,0.4-2.2,1.7-2.7,3.8c-0.4,1.8-0.3,3.7,0.1,5.6c-1.5,0.9-2.7,2.5-3.8,4.9 c-1.3,2.5-1.9,5.1-1.9,7.6l-18.1,5.4l-5.8-31.8v0c-0.5-2.5-1.9-2.5-2.5-2.4c-1.4,0.3-1.5,2.2-1.4,4.1c0,0.2-0.1,1-1.2,2.9 c-1,1.7-1.4,3.5-1.1,5.1c0.1,0.7,0.4,1.5,0.9,2.3c-1.5,0.6-2.9,1.6-4.2,3.1c-1.7,1.9-2.3,3.4-2.1,4.7c0.3,1.4,1.3,1.7,2.1,1.6 c0.3-0.1,0.7-0.2,1.3-0.6c0.5-0.3,0.7-0.3,0.7-0.3c0.5-0.1,0.7,0.1,0.8,0.2c0.2,0.2,0.5,0.7,0.7,1.9l1.8,9.9l-24.8,4.5l-2.4-34.2 c-0.1-0.8-0.3-1.5-0.6-1.9c-0.4-0.6-1.1-0.9-1.8-0.8c-1.1,0.1-1.6,1.3-2,2.7c-0.6,2-2.7,4-6.3,6c-4.4,2.4-6.9,5.9-7.5,10.3 c-2,0.4-3.7,1.6-5.1,3.4c-1.5,2-2.4,4.3-2.7,7.1c-0.3,2.9-1.4,4.9-3.3,6.2c-1.3,0.8-2.9,2-2.8,3.6c0.1,0.8,0.5,1.4,1.2,1.7 c0.5,0.3,1.2,0.4,2.1,0.3l21.5-1.5l0.5,7.6l9-0.6l0.1,0.8l35.6-6.4l0.4,1.3L600,873c0.8,1.1,2,2.1,3.8,3.2c1.9,1.1,3.4,1.8,4.7,2 c3,0.6,4.8,2,5.6,4.5c0,0,0,0.1-0.1,0.4c-0.1,0.5-0.1,1,0,1.4c0.3,0.9,0.9,1.4,1.7,1.4c0.2,0,0.4,0,0.6-0.1 c1.1-0.3,2.1-1.4,2.8-3.2c0.8-1.9,1-4.1,0.4-6.4c2.7-1.9,4.8-4.5,6.1-7.6c0.4-0.9,0.7-1.9,0.9-2.8l30-12.8l0.5,0.9l30.7-16.8 l0.4,0.7l28.7-19.1l-39.7-59.8C675.7,756.6,674.4,757.2,673.8,757.6z M615.7,865.7c-0.6,1.2-1.5,1.9-2.8,2.3 c-1.3,0.4-2.5,0.2-3.7-0.4c-1.2-0.6-2-1.6-2.3-2.9c-0.4-1.2-0.2-2.4,0.4-3.6c0.7-1.2,1.6-1.9,2.9-2.3c0.5-0.1,1-0.2,1.4-0.2 c0.8,0,1.5,0.2,2.2,0.6c1.2,0.6,1.9,1.5,2.3,2.8C616.4,863.3,616.3,864.5,615.7,865.7z M530.2,861.8c0-2.5,0.7-4.1,2.3-5l0.7,9.3 l-8.5,0.6c0.6-2.1,2.2-3.4,4.7-3.9l0.8-0.2L530.2,861.8z"/>
      <path d="M690.5,746.4c-0.7-0.3-1.3-0.2-1.9,0.2c-1.1,0.9-0.4,2.6,0.6,4.2c0.3,0.6,0.4,1.5,0.2,2.6c-0.4,1.9,0.1,4,1.5,6.1 c-1.3,1.2-2.3,2.7-2.9,4.4c-0.8,2.4-0.6,4.5,0.8,6.3c0.8,1.1,1.7,0.9,2.3,0.5c0.3-0.3,0.7-0.7,1.1-1.5c0.4-0.7,0.6-0.9,0.6-0.9 c0.4-0.3,1.6-1.2,4,1.8l31,40.5l7.8-6l-43.6-57C691.4,747,690.9,746.6,690.5,746.4z"/>
      <path d="M730.9,729.2C730.9,729.2,730.9,729.2,730.9,729.2c-1.6,0-3,0.6-4.1,1.7c-1.1,1.1-1.6,2.4-1.6,4s0.6,2.9,1.6,4 c1.1,1.1,2.4,1.6,4,1.6c0,0,0,0,0.1,0c1.6,0,2.9-0.6,4-1.6c1.1-1.1,1.6-2.5,1.6-4.1c0-1.6-0.6-2.9-1.7-4 C733.8,729.7,732.5,729.2,730.9,729.2z"/>
      <path d="M740,719.9c-1.6,0-2.9,0.6-4,1.7c-1.1,1.1-1.6,2.4-1.6,4c0,1.6,0.5,3,1.6,4c1.1,1.1,2.4,1.6,4,1.6c0,0,0.1,0,0.1,0 c1.6,0,2.9-0.6,4-1.7c1.1-1.1,1.6-2.5,1.6-4.1c0-1.6-0.6-2.9-1.7-4C742.9,720.4,741.6,719.9,740,719.9z"/>
      <path d="M808.4,749c-1.2-1-2.6-1.4-4.2-1.3c-1.6,0.1-2.9,0.8-3.8,2c-1,1.2-1.4,2.6-1.3,4.2c0.2,1.6,0.8,2.9,2,3.9 c1,0.8,2.2,1.3,3.5,1.3c0.2,0,0.4,0,0.6,0c1.6-0.2,2.9-0.8,3.9-2c1-1.2,1.4-2.6,1.2-4.1C810.2,751.2,809.5,750,808.4,749z"/>
      <path d="M816.6,739c-1.2-1-2.6-1.4-4.2-1.3c-1.6,0.1-2.9,0.8-3.8,2c-1,1.2-1.4,2.6-1.3,4.2c0.2,1.6,0.8,2.9,2,3.9 c1,0.8,2.2,1.3,3.5,1.3c0.2,0,0.4,0,0.6,0c1.6-0.1,2.9-0.8,3.9-2c1-1.2,1.4-2.6,1.2-4.1C818.5,741.2,817.8,740,816.6,739z"/>
      <path d="M900.2,567.3L900.2,567.3c-1.3-0.6-2.4,1-3.5,2.6c-0.4,0.6-1.1,1.1-2.2,1.4c-1.9,0.5-3.4,1.8-4.6,3.9 c-0.7-0.6-1.4-1.1-2.3-1.5c-1-0.5-2.2-0.6-3.5-0.4c-1.4,0.2-2.4,0.8-2.8,1.7c-0.1,0.2-0.3,0.9,0.4,1.6c0.3,0.3,0.7,0.5,1.2,0.8 c1.3,0.6,2.5,1.7,0.8,5.3c-1,2.2-2.6,4.2-4.7,5.8c-2.8,2-7.7,4.6-14.7,7.7c-7.3,3.2-12,5.5-14.3,7c-2.2,1.5-3.9,3.3-4.8,5.4 c-1.3,2.9-1.4,5.8-0.3,8.7c1.1,2.8,3.2,4.9,6.1,6.3c2.7,1.2,6,1.2,9.7,0c3.5-1.1,5.4-2.3,6-3.7c0.7-1.6,0-2.6-0.8-3 c-0.5-0.2-1.1-0.3-4.6,0.7c-2,0.6-3.6,0.6-4.7,0.1c-1.3-0.6-2.4-1.5-1.2-4.2c0.9-1.9,3.5-3.9,7.9-5.9l11.5-5.3l-18,39.4 c-4.1-1.4-8.7-0.7-13.8,2.1c-3.3,1.8-5.9,2.2-7.9,1c-0.2-0.1-0.3-0.2-0.4-0.3c-0.2-0.2-0.4-0.3-0.7-0.5c-0.2-0.1-1.5-0.7-2.4,1 c-0.7,1.2-0.5,2.7,0.7,4.6c1,1.6,2.3,2.9,4,4c-0.4,1.7-0.2,3.7,0.6,6.2c0.8,2.7,2.1,5,3.8,6.9l-6.2,10.7l-5,7.2l-5,0.6 c0.1-4.2,1.5-8.1,4.1-11.9c0.3-0.4,0.7-0.9,1.1-1.3c0.8-0.7,1-1,1.1-1.2c1.1-1.5,0.2-2.3,0-2.5c-0.3-0.2-0.9-0.5-3.7-0.6 c-2.2-0.1-4.4,0.1-6.4,0.5c-4.5,0.9-8.1,2.5-10.8,4.7c-0.5-0.4-1.1-0.8-1.8-1.3c-3-2.1-6.6-2.7-10.7-1.7c-2.5,0.6-4.6,0.2-6.5-1 c-0.8-0.6-1.5-0.9-2.2-1c-0.8-0.1-1.6,0.2-2,0.8c-0.5,0.7-0.9,2.2,1.6,3.9c1.8,1.3,2.9,3.1,3.2,5.7c0.5,4.1,2.3,7.3,5.3,9.4 c0.7,0.5,1.4,0.9,1.9,1.3c-1.1,3.3-1.3,7.2-0.6,11.6c0.3,2.1,0.9,4.1,1.8,6.2c1,2.2,1.4,2.8,1.7,3.1c0.4,0.4,0.8,0.5,1,0.5 c0.8,0,1.2-0.7,1.4-0.9c0.1-0.2,0.3-0.5,0.8-1.5c0.3-0.6,0.6-1.1,0.8-1.5c2.5-3.7,5.8-6.3,9.6-7.9l1.2,4.7l-15.3,22l-24.8-20.5 c-1.9-1.6-3.1-0.7-3.5-0.2c-0.9,1.1,0.3,2.7,1.5,4c0.2,0.2,0.6,0.8,0.9,3c0.3,2,1.2,3.5,2.5,4.6c0.6,0.5,1.3,0.9,2.2,1.2 c-0.8,1.4-1.2,3.1-1.2,5.1c0,2.6,0.4,4.1,1.4,5c1.1,0.9,2.1,0.5,2.6-0.1c0.2-0.3,0.4-0.7,0.6-1.3c0.2-0.6,0.3-0.7,0.3-0.7 c0.3-0.4,0.6-0.4,0.8-0.4c0.3,0,0.9,0.2,1.8,1l7.7,6.4l-15.4,18.7l-24.3-23.9c-1.9-1.8-3.2-0.9-3.7-0.4c-0.8,0.8-0.3,2.1,0.3,3.4 c0.9,1.9,0.6,4.8-0.7,8.6c-1.7,4.7-1.3,8.9,1.3,12.7c-1.2,1.6-1.7,3.6-1.6,5.9c0.1,2.5,1,4.9,2.7,7.1c1.7,2.4,2.3,4.6,1.6,6.8 c-0.4,1.4-0.8,3.5,0.3,4.6c0.2,0.2,0.7,0.6,1.4,0.6c0.6,0,1.4-0.3,2.4-1.3l15.1-15.4l5.4,5.3l5.5-5.6l0.5,0.4l22.2-26.8l1,0.7 l19.7-28.4l-0.3-0.5c-1.9-3.7-3.1-7-3.4-9.8c2.4-0.5,5.9-0.5,10.4-0.1l0.6,0.1l3.6-5.2l0.6,0.3l3.9-6.7l3.9-5.6l-0.5-0.3l3.4-5.8 c1.3,0.3,2.9,0.2,4.9-0.3c2.1-0.5,3.7-1,4.8-1.8c2.6-1.7,4.9-1.8,7.1-0.6c0,0,0.1,0.1,0.2,0.3c0.3,0.5,0.6,0.8,0.9,1 c0.5,0.3,0.9,0.4,1.4,0.3c0.3-0.1,0.8-0.3,1.1-0.9c0.6-1,0.6-2.4-0.1-4.2c-0.7-2-2.1-3.6-4.1-4.9c0.7-3.2,0.4-6.5-0.8-9.7 c-0.2-0.5-0.4-1-0.7-1.6l35.7-78.1C901.9,568.4,900.7,567.5,900.2,567.3z M847.9,654.1c0.7-1.2,1.6-1.9,2.9-2.2 c0.4-0.1,0.9-0.2,1.3-0.2c0.8,0,1.6,0.2,2.3,0.6c1.2,0.7,1.9,1.6,2.3,2.9c0.4,1.3,0.2,2.5-0.5,3.6c-0.7,1.1-1.6,1.9-2.9,2.2 c-1.3,0.4-2.5,0.2-3.7-0.5c-1.1-0.7-1.8-1.6-2.1-2.9C847.1,656.4,847.3,655.2,847.9,654.1z M807.9,684.7 c-0.9-0.1-1.8-0.5-2.8-1.2c-1.3-0.9-2-2.2-2.2-4c1.8-0.4,3.3-0.2,4.6,0.7c1,0.7,1.7,1.4,2.1,2.2l0.6,1.2l1-0.9 c1.9-1.8,3.8-2.9,5.5-3.1c-1,2.7-1.5,5.5-1.6,8.3c-2.6,1.1-5.1,2.5-7.3,4.4c-0.4-1.7-0.1-3.8,1-6.2l0.5-1.2L807.9,684.7z M761.4,750.9c-1.7-1.8-2.2-3.5-1.6-5.2l6.6,6.5l-6,6.1c-0.9-1.9-0.6-3.9,0.9-6.1l0.5-0.7L761.4,750.9z"/>
      <path d="M893.2,614L893.2,614c-1.4-0.6-2.9-0.7-4.4-0.1c-1.5,0.6-2.6,1.5-3.2,2.9c-0.6,1.4-0.7,2.9-0.1,4.4 c0.6,1.5,1.5,2.6,3,3.2c0.7,0.3,1.5,0.5,2.2,0.5c0.7,0,1.4-0.1,2.1-0.4c1.5-0.6,2.6-1.5,3.2-3c0.6-1.4,0.7-2.8,0.1-4.3 C895.6,615.7,894.6,614.7,893.2,614z"/>
    </g>
  </g>
</svg>